<?xml version="1.0" encoding="utf-8"?>
<!-- Generator: Adobe Illustrator 23.0.1, SVG Export Plug-In . SVG Version: 6.00 Build 0)  -->
<svg version="1.1" id="Layer_2" xmlns="http://www.w3.org/2000/svg" xmlns:xlink="http://www.w3.org/1999/xlink" x="0px" y="0px"
	 width="144px" height="144px" viewBox="0 0 144 144" style="enable-background:new 0 0 144 144;" xml:space="preserve">
<style type="text/css">
	.st0{fill:#4CB5DB;}
	.st1{fill-rule:evenodd;clip-rule:evenodd;fill:#FFFFFF;}
</style>
<circle class="st0" cx="72" cy="72" r="72"/>
<g>
	<path class="st1" d="M105,53.7c-1,0-1-0.4-2-1.3c-0.9-0.9-2.2-2.3-4.9-2.3c-2.6,0-4.1,1.5-5,2.3c-1,0.9-1.2,1.3-2.4,1.3
		c-1.2,0-1.4-0.4-2.5-1.3c-0.9-0.9-2.5-2.3-5.1-2.3c-2.6,0-4.2,1.5-5.1,2.3c-1,0.9-1.3,1.3-2.5,1.3c-1.2,0-2-0.4-3-1.3
		C71.7,51.5,70,50,67,50v3.3c2,0,2,0.4,3,1.3c0.9,0.9,3,2.4,5.6,2.3c2.6,0,4.2-1.5,5.1-2.3c1-0.9,1.3-1.3,2.5-1.3
		c1.2,0,1.6,0.4,2.6,1.3C86.7,55.5,88,57,91,57v0c2,0,4.1-1.5,5-2.3c1-0.9,1.3-1.3,2.4-1.3c1.2,0,1.5,0.4,2.5,1.3
		c0.9,0.9,1.1,2.3,4.1,2.3c0,0,0,0,0,0V53.7z"/>
	<rect x="67" y="61" class="st1" width="38" height="4"/>
	<rect x="67" y="69" class="st1" width="38" height="4"/>
	<path class="st1" d="M37,73h24V50H37V73z M41,54h16v15H41V54z"/>
	<path class="st1" d="M109,32H33c-3.3,0-6,2.7-6,6v68c0,3.3,2.7,6,6,6h76c3.3,0,6-2.7,6-6V38C115,34.7,112.3,32,109,32z M111,106
		c0,1.1-0.9,2-2,2H33c-1.1,0-2-0.9-2-2V46c0-1.1,0.9-2,2-2h76c1.1,0,2,0.9,2,2V106z"/>
</g>
</svg>
