<svg id="Layer_1" data-name="Layer 1" xmlns="http://www.w3.org/2000/svg" width="54" height="54" viewBox="0 0 54 54"><defs><style>.cls-1{fill:#f5c217;}.cls-2{fill:#ddd;}</style></defs><title>icons_notification</title><polygon class="cls-1" points="65 51 67.588 53.341 71 52.608 72.071 55.929 75.392 57 74.659 60.412 77 63 74.659 65.588 75.392 69 72.071 70.071 71 73.392 67.588 72.659 65 75 62.412 72.659 59 73.392 57.929 70.071 54.608 69 55.341 65.588 53 63 55.341 60.412 54.608 57 57.929 55.929 59 52.608 62.412 53.341 65 51"/><path class="cls-2" d="M26.99976,0a27,27,0,1,0,27,27A27,27,0,0,0,26.99976,0ZM27,40.98438a3.432,3.432,0,0,1-3.42834-3.4375h6.85668A3.432,3.432,0,0,1,27,40.98438Zm11.99976-5.71876H15.00146v-1.625l-.0017.00171a11.85237,11.85237,0,0,0,3.43176-8.36c0-.08252,0-.165-.00171-.23547V23.32642a8.60374,8.60374,0,0,1,6.85663-8.42017v-.17187a1.71418,1.71418,0,1,1,3.42834,0v.17187l.05658.01031a8.59108,8.59108,0,0,1,6.8,8.40986v1.70843c-.00171.08246-.00171.165-.00171.2475a11.854,11.854,0,0,0,3.43006,8.35827Z"/></svg>