<svg xmlns="http://www.w3.org/2000/svg" width="40" height="50" viewBox="0 0 40 50">
    <g fill="#FFF" fill-rule="evenodd">
		<path class="st0" d="M32,27.1c0,2.3-0.7,4.6-1.9,6.5C30,33.9,29.7,34,29.4,34H25v-2h3.7c2.7-4.9,0.9-11-4-13.7
			C23.3,17.5,21.7,17,20,17c-5.5,0-10,4.5-10,10.1c0,1.7,0.4,3.4,1.3,4.9H15v2h-4.4c-0.3,0-0.6-0.1-0.7-0.4c-1.2-2-1.9-4.2-1.9-6.5
			c0-6.6,5.3-12,11.9-12.1S32,20.3,32,26.9C32,27,32,27,32,27.1z M21.9,32.3L21.9,32.3L21.9,32.3c-0.1-0.3-0.2-0.5-0.4-0.7l-5.1-7.9
			L18,33c0,0.2,0,0.5,0.1,0.7c0,0,0,0,0,0l0,0l0,0c0.4,1,1.6,1.5,2.6,1.1C21.7,34.5,22.3,33.3,21.9,32.3
			C21.9,32.3,21.9,32.3,21.9,32.3L21.9,32.3z"/>
	</g>
</svg>
