<?xml version="1.0" encoding="utf-8"?>
<!-- Generator: Adobe Illustrator 23.0.1, SVG Export Plug-In . SVG Version: 6.00 Build 0)  -->
<svg version="1.1" id="Layer_1" xmlns="http://www.w3.org/2000/svg" xmlns:xlink="http://www.w3.org/1999/xlink" x="0px" y="0px"
	 viewBox="0 0 40 50" style="enable-background:new 0 0 40 50;" xml:space="preserve">
<style type="text/css">
	.st0{fill-rule:evenodd;clip-rule:evenodd;fill:#DB3D44;}
</style>
<g>
	<path class="st0" d="M32.4,27.9C32.4,21.3,27.3,16,21,16S9.6,21.3,9.6,27.9v2h6.9v-2h-4.9c0.1-5.5,4.3-9.9,9.4-9.9s9.4,4.4,9.4,9.9
		h-4.9v2h6.9V27.9z"/>
	<path class="st0" d="M22.5,27.2l-0.1-0.1c0-0.1-0.1-0.1-0.2-0.2L19.4,23l-0.5,4.7v0.4c0,1.1,0.9,1.9,1.9,1.9c1.1,0,1.9-0.9,1.9-1.9
		C22.7,27.8,22.6,27.5,22.5,27.2z"/>
</g>
</svg>
