<svg xmlns="http://www.w3.org/2000/svg" width="64" height="64" viewBox="0 0 64 64"><defs><style>.cls-1{fill:#fff;}</style></defs><title>icons_final</title><g id="Layer_2" data-name="Layer 2"><path class="cls-1" d="M7,13a3,3,0,1,1,3,3A3,3,0,0,1,7,13ZM34.38611,28.19983,56.293,6.293,57.707,7.707,35.80017,29.61389A4.45912,4.45912,0,0,1,36.5,32,4.5,4.5,0,1,1,32,27.5,4.45912,4.45912,0,0,1,34.38611,28.19983ZM34.5,32A2.5,2.5,0,1,0,32,34.5,2.50263,2.50263,0,0,0,34.5,32ZM39,40a3,3,0,1,0,3-3A3,3,0,0,0,39,40ZM17,50a3,3,0,1,0-3-3A3,3,0,0,0,17,50ZM14.23718,10.37231a27.93245,27.93245,0,0,1,35.31421-.16626l1.43292-1.43292a29.99379,29.99379,0,0,0-38.12848.13056A5.00847,5.00847,0,0,1,14.23718,10.37231Zm40.98957,2.64325-1.43293,1.43293A27.99572,27.99572,0,1,1,8.00757,17.582a4.9955,4.9955,0,0,1-1.64441-1.16925,30.003,30.003,0,1,0,48.86359-3.39716ZM54,32a21.89947,21.89947,0,0,0-4.46918-13.28839L48.082,20.16046A19.96012,19.96012,0,0,1,21.56268,49.02795a4.99131,4.99131,0,0,1-1.193,1.64441A21.99736,21.99736,0,0,0,54,32ZM32,12a19.86718,19.86718,0,0,1,11.83954,3.918l1.44885-1.44885A21.99742,21.99742,0,0,0,13.32764,43.63031a4.99131,4.99131,0,0,1,1.64441-1.193A19.95861,19.95861,0,0,1,32,12ZM45.32416,36.2901a13.94109,13.94109,0,0,0-1.5409-11.83081l-1.45752,1.45752a11.83777,11.83777,0,0,1,1.21088,9.34894A4.96527,4.96527,0,0,1,45.32416,36.2901ZM32,46a13.914,13.914,0,0,0,7.09381-1.94525,5.00133,5.00133,0,0,1-1.37469-1.50757,12.00724,12.00724,0,1,1,.36425-20.87286l1.45746-1.45752A13.99562,13.99562,0,1,0,32,46Z"/></g></svg>