<svg id="Layer_1" data-name="Layer 1" xmlns="http://www.w3.org/2000/svg" width="24" height="24" viewBox="0 0 24 24"><defs><style>.cls-1{fill:#666;}</style></defs><title>icons_final</title><path class="cls-1" d="M22.93506,6.3573a4.80331,4.80331,0,0,1-1.51575,3.5003l-5.05884,4.8227a5.11322,5.11322,0,0,1-1.61908,1.03637l-.1585.05683-.0243.00873a5.05865,5.05865,0,0,1-.63763.18194,5.17511,5.17511,0,0,1-.54669.085c-.0456.00489-.09107.00971-.13672.01337a5.63956,5.63956,0,0,1-.63178.01428c-.16827-.00335-.335-.02105-.502-.04077-.02374-.00293-.04779-.00256-.07153-.0058l-.35932-.049A4.98208,4.98208,0,0,1,9.24524,14.73l-.71057-.676c-.029-.02765-.05731-.056-.08563-.08429-.10157-.10157-.17878-.21881-.26978-.32746l1.44165-1.37433a2.71728,2.71728,0,0,0,.29346.33735l.71051.676a3.243,3.243,0,0,0,4.35522-.04907l1.3244-1.26251,3.73377-3.55945a2.81377,2.81377,0,0,0,.897-2.05158,2.68878,2.68878,0,0,0-.799-1.91485c-.01654-.0166-.03314-.03314-.05041-.049l-.71051-.67609a3.19334,3.19334,0,0,0-4.35523.04907L12.1759,6.47925a6.81589,6.81589,0,0,0-3.25445.33856l4.71832-4.498A5.21812,5.21812,0,0,1,20.755,2.27l.71058.676A4.713,4.713,0,0,1,22.93506,6.3573ZM11.8288,17.5166,8.9801,20.23224a3.19332,3.19332,0,0,1-4.35522.04907l-.71051-.676A2.66317,2.66317,0,0,1,3.065,17.64136a2.81374,2.81374,0,0,1,.897-2.05158l2.2691-2.16314,2.78906-2.65882a3.19224,3.19224,0,0,1,1.79736-.84253,3.10157,3.10157,0,0,1,2.55787.79346l.71051.67609c.01727.01587.03387.03241.05041.049a2.76852,2.76852,0,0,1,.2403.29144l1.442-1.37494a4.997,4.997,0,0,0-.353-.41431L14.755,9.27A4.94412,4.94412,0,0,0,12.64386,8.1059,5.23772,5.23772,0,0,0,7.63977,9.31976L5.59692,11.26727l-3.016,2.87519a4.80336,4.80336,0,0,0-1.51574,3.5003,4.67105,4.67105,0,0,0,1.38385,3.327c.02832.02832.05664.05664.08563.08429l.71057.676a5.21812,5.21812,0,0,0,7.11523-.04974l4.70539-4.48572a6.8478,6.8478,0,0,1-2.309.406A6.84334,6.84334,0,0,1,11.8288,17.5166Z"/></svg>