<svg xmlns="http://www.w3.org/2000/svg" width="40" height="50" viewBox="0 0 40 50">
    <g fill="#ca2633" fill-rule="evenodd">
		<path class="st0" d="M10,28h9v6h-6c-0.6,0-1-0.4-1-1c0-0.5,0.4-0.9,0.8-1l4.2-0.7V30H9.5C8.7,30,8,29.3,8,28.5v-14
			C8,13.7,8.7,13,9.5,13h19c0.8,0,1.5,0.7,1.5,1.5V16h-2v-1H10V28z M32,18.5v17c0,0.8-0.7,1.5-1.5,1.5h-9c-0.8,0-1.5-0.7-1.5-1.5v-17
			c0-0.8,0.7-1.5,1.5-1.5h9C31.3,17,32,17.7,32,18.5z M27,35.5c0-0.3-0.2-0.5-0.5-0.5h-1c-0.3,0-0.5,0.2-0.5,0.5s0.2,0.5,0.5,0.5h1
			C26.8,36,27,35.8,27,35.5z M30,19h-8v15h8V19z"/>
	</g>
</svg>
