<svg id="Layer_1" data-name="Layer 1" xmlns="http://www.w3.org/2000/svg" width="24" height="24" viewBox="0 0 24 24"><defs><style>.cls-1{fill:#666;}</style></defs><title>icons_final</title><path class="cls-1" d="M24,12a12.02084,12.02084,0,1,1-5.09534-9.80457L17.46454,3.63556a9.99233,9.99233,0,1,0,2.84564,2.81061l1.433-1.433A11.93108,11.93108,0,0,1,24,12ZM4,12A8,8,0,1,0,18.85876,7.89758l-.72894.729A7.012,7.012,0,1,1,15.28,5.82013l.73315-.73315A7.98971,7.98971,0,0,0,4,12ZM21.122,4.22028A12.04777,12.04777,0,0,0,19.70312,2.811L18.28223,4.23193l-6.18171,6.18171-2.0614-2.06135A.02291.02291,0,0,0,10,8.36853l.01447,5.60858A.02288.02288,0,0,0,10.03729,14l5.60858.0144a.02292.02292,0,0,0,.0163-.03912L13.51459,11.8277l6.19085-6.19086Z"/></svg>