<?xml version="1.0" encoding="utf-8"?>
<!-- Generator: Adobe Illustrator 21.0.2, SVG Export Plug-In . SVG Version: 6.00 Build 0)  -->
<svg version="1.1" id="圖層_1" xmlns="http://www.w3.org/2000/svg" xmlns:xlink="http://www.w3.org/1999/xlink" x="0px" y="0px"
	 width="48px" height="48px" viewBox="0 0 48 48" style="enable-background:new 0 0 48 48;" xml:space="preserve">
<style type="text/css">
	.st0{fill:#222222;}
	.st1{fill-rule:evenodd;clip-rule:evenodd;fill:#222222;}
</style>
<g>
	<path class="st0" d="M30.2,42H2V9h39v21.1c0.7,0.1,1.4,0.2,2,0.4V3H0v41h30.8C30.6,43.4,30.3,42.7,30.2,42z M2,5h2v2H2V5z"/>
	<path class="st0" d="M31,35.7V22h-5v15h4.5C30.6,36.5,30.8,36.1,31,35.7z"/>
	<rect x="19" y="30" class="st0" width="5" height="7"/>
	<path class="st0" d="M38,30.2V14h-5v18.9C34.4,31.5,36.1,30.6,38,30.2z"/>
	<rect x="12" y="26" class="st0" width="5" height="11"/>
	<path class="st0" d="M30.2,38H5v1h25.1C30.1,38.7,30.1,38.3,30.2,38z"/>
	<rect x="5" y="19" class="st0" width="5" height="18"/>
	<path class="st1" d="M40,32c-4.4,0-8,3.6-8,8c0,4.4,3.6,8,8,8c4.4,0,8-3.6,8-8C48,35.6,44.4,32,40,32z M45,41h-4v4h-2v-4h-4v-2h4
		v-4h2v4h4V41z"/>
</g>
</svg>
