<svg id="Layer_1" data-name="Layer 1" xmlns="http://www.w3.org/2000/svg" width="24" height="24" viewBox="0 0 24 24"><defs><style>.cls-1{fill:#666;}</style></defs><title>icons_final</title><path class="cls-1" d="M12,2A10,10,0,1,1,2,12,10.01132,10.01132,0,0,1,12,2m0-2A12,12,0,1,0,24,12,12,12,0,0,0,12,0ZM9.69312,11.42407,8.317,11.071a4.47132,4.47132,0,0,1-1.04151-.353.74183.74183,0,0,1-.38189-.683.89915.89915,0,0,1,.3872-.77557A1.74164,1.74164,0,0,1,8.317,8.98163a2.02283,2.02283,0,0,1,.97607.21417,1.23478,1.23478,0,0,1,.63245,1.09387H11.5a2.62725,2.62725,0,0,0-.92871-2.0755A3.1807,3.1807,0,0,0,9,7.54211V5.25H8V7.52887a2.89544,2.89544,0,0,0-1.8468.72931,2.553,2.553,0,0,0-.77551,1.90417,2.15195,2.15195,0,0,0,.79254,1.84632,5.02245,5.02245,0,0,0,1.71911.654l.84894.20257a3.52964,3.52964,0,0,1,1.08887.39936.74391.74391,0,0,1,.34308.654.98314.98314,0,0,1-.70056.98969,2.776,2.776,0,0,1-.96119.13891,1.66173,1.66173,0,0,1-1.39569-.52667,1.81527,1.81527,0,0,1-.299-.874H5.25a2.60885,2.60885,0,0,0,.88721,2.09173A3.31407,3.31407,0,0,0,8,16.46283V18.75H9V16.47119a3.09392,3.09392,0,0,0,1.91913-.74444A2.53777,2.53777,0,0,0,11.75,13.78552,2.16963,2.16963,0,0,0,11.049,12.0434,3.36344,3.36344,0,0,0,9.69312,11.42407ZM18.75,13.78552a2.16963,2.16963,0,0,0-.701-1.74212,3.36344,3.36344,0,0,0-1.35583-.61933l-1.3761-.353a4.47132,4.47132,0,0,1-1.04151-.353.74183.74183,0,0,1-.38189-.683.89915.89915,0,0,1,.3872-.77557,1.74164,1.74164,0,0,1,1.0362-.27783,2.02283,2.02283,0,0,1,.97607.21417,1.23478,1.23478,0,0,1,.63245,1.09387H18.5a2.62725,2.62725,0,0,0-.92871-2.0755A3.1807,3.1807,0,0,0,16,7.54211V5.25H15V7.52887a2.89544,2.89544,0,0,0-1.8468.72931,2.553,2.553,0,0,0-.77551,1.90417,2.15195,2.15195,0,0,0,.79254,1.84632,5.02245,5.02245,0,0,0,1.71911.654l.84894.20257a3.52964,3.52964,0,0,1,1.08887.39936.74391.74391,0,0,1,.34308.654.98314.98314,0,0,1-.70056.98969,2.776,2.776,0,0,1-.96119.13891,1.66173,1.66173,0,0,1-1.39569-.52667,1.81527,1.81527,0,0,1-.29895-.874H12.25a2.60885,2.60885,0,0,0,.88721,2.09173A3.31407,3.31407,0,0,0,15,16.46283V18.75h1V16.47119a3.09392,3.09392,0,0,0,1.91913-.74444A2.53777,2.53777,0,0,0,18.75,13.78552Z"/></svg>