<svg id="Layer_1" data-name="Layer 1" xmlns="http://www.w3.org/2000/svg" width="24" height="24" viewBox="0 0 24 24"><defs><style>.cls-1{fill:#666;}</style></defs><title>icons_final</title><path class="cls-1" d="M21,7H18V4a4.01175,4.01175,0,0,0-4-4H10A4.01175,4.01175,0,0,0,6,4V7H3A1,1,0,0,0,2,8V23a1,1,0,0,0,1,1H21a1,1,0,0,0,1-1V8A1,1,0,0,0,21,7ZM8,4a2.0023,2.0023,0,0,1,2-2h4a2.0023,2.0023,0,0,1,2,2V7H8ZM20,22H4V9H20Zm-6-8a1.99146,1.99146,0,0,1-1,1.7226V19H11V15.7226A1.99655,1.99655,0,1,1,14,14Z"/></svg>