<svg id="Layer_1" data-name="Layer 1" xmlns="http://www.w3.org/2000/svg" width="24" height="24" viewBox="0 0 24 24"><defs><style>.cls-1{fill:#666;}</style></defs><title>icons_final</title><path class="cls-1" d="M12,2.00588a10,10,0,1,1-10,10,10.01132,10.01132,0,0,1,10-10m0-2a12,12,0,1,0,12,12,12,12,0,0,0-12-12Zm7.5,14.5v-3h-3v1H12.11938l-1.79113-4H14.571a2,2,0,1,0,0-1H10v-2H7v3h.76782L6.5899,12.015c-.03045-.0014-.05914-.00909-.0899-.00909a2.00005,2.00005,0,1,0,1.29889,3.5083l4.458,2.4234c-.00092.02319-.0069.04492-.0069.0683a1.75,1.75,0,0,0,3.5,0,1.732,1.732,0,0,0-.18591-.77033l2.18377-2.72967Zm-3-7.5a1,1,0,1,1-1,1A1.0013,1.0013,0,0,1,16.5,7.00586Zm0,6.5v.95825l-1.62683,2.03351a1.50252,1.50252,0,0,0-1.06592-.22229l-1.24011-2.76947Zm-7.67706-5h.40948l1.79108,4H7.809a1.99442,1.99442,0,0,0-.26276-.19678ZM6.5,15.00586a1,1,0,1,1,1-1A1.0013,1.0013,0,0,1,6.5,15.00586Zm1.8725-.31836A1.84733,1.84733,0,0,0,8.429,13.50586h3.04229l1.4151,3.16034a1.75248,1.75248,0,0,0-.29785.31311Z"/></svg>