<svg xmlns="http://www.w3.org/2000/svg" width="40" height="50" viewBox="0 0 40 50">
    <g fill="#ca2633" fill-rule="evenodd">
		<path class="st0" d="M32,35.6l-3.7-3.7c4.1-4.9,3.5-12.1-1.4-16.2s-12.1-3.5-16.2,1.4s-3.5,12.1,1.4,16.2c4.3,3.6,10.5,3.6,14.8,0
			l3.7,3.7L32,35.6z M10,24.5c0-5.2,4.3-9.5,9.5-9.5s9.5,4.3,9.5,9.5S24.7,34,19.5,34S10,29.7,10,24.5z"/>
		<path class="st0" d="M16.9,23.2c0-0.1,0.1-0.1,0.1-0.2h4.1c0.2,0.9,1,1.5,1.9,1.5c1.1,0,2-0.9,2-2s-0.9-2-2-2
			c-0.9,0-1.7,0.6-1.9,1.5H17l0,0.1c-0.2-1.4-1.5-2.3-2.9-2c-1.4,0.2-2.3,1.5-2,2.9c0.2,1.4,1.5,2.3,2.9,2c0.1,0,0.1,0,0.2,0
			c1,2.4,3.3,4.1,5.9,4.5c0.2,0.9,1,1.6,2,1.6c1.1,0,2-0.9,2-2s-0.9-2-2-2c-0.9,0-1.7,0.6-1.9,1.4c-2.3-0.3-4.2-1.8-5.1-3.9
			C16.4,24.2,16.7,23.7,16.9,23.2z M13,22.5c0-0.8,0.7-1.5,1.5-1.5s1.5,0.7,1.5,1.5S15.3,24,14.5,24S13,23.3,13,22.5z"/>
	</g>
</svg>
