<svg xmlns="http://www.w3.org/2000/svg" width="40" height="50" viewBox="0 0 40 50">
	<g fill="#ca2633" fill-rule="evenodd">
		<path class="st0" d="M27.5,37l-15,0c-2.2,0-3.6-0.7-4.2-2c-1.1-2.4,1.4-6,2.8-7.6c1.2-1.4,2.7-2.5,4.4-3.2c-2.6-2.5-2.6-6.6-0.1-9.2
			s6.6-2.6,9.2-0.1s2.6,6.6,0.1,9.2c0,0,0,0,0,0c0,0-0.1,0.1-0.1,0.1c1.6,0.7,3.1,1.8,4.3,3.1l0.1,0.1c1.4,1.6,3.9,5.2,2.8,7.6
			C31.1,36.3,29.7,37,27.5,37z M20,15c-2.5,0-4.5,2-4.5,4.5c0,1.6,0.9,3.1,2.3,3.9l0.5,0.3v1.6l-0.7,0.2c-1.9,0.6-3.6,1.8-5,3.3
			c-1.5,1.7-2.9,4.4-2.4,5.5c0.3,0.7,1.5,0.8,2.4,0.8h15c0.9,0,2.1-0.1,2.4-0.8c0.5-1.1-0.9-3.7-2.4-5.4l-0.1-0.1
			c-1.4-1.5-3.1-2.6-5-3.3l-0.7-0.2v-1.6l0.5-0.3c2.2-1.2,2.9-4,1.6-6.1C23.1,15.9,21.6,15,20,15L20,15z"/>
	</g>
</svg>
