<svg id="Layer_1" data-name="Layer 1" xmlns="http://www.w3.org/2000/svg" width="24" height="24" viewBox="0 0 24 24"><defs><style>.cls-1{fill:#db3d44;}</style></defs><title>icons_notification</title><path class="cls-1" d="M12,0A12,12,0,1,0,24,12,12,12,0,0,0,12,0Zm7.63931,18.71316c-.18223.18267-.48736.48442-.48736.48442s-.3052.30315-.48889.48487a.89883.89883,0,0,1-.97273-.00345c-.19658-.1965-2.47793-2.49316-2.47793-2.49316l-.48537-.48838s-.78955.18076-.97178-.00293c-.18171-.18369-.30322-.30425-.30322-.30425a.26846.26846,0,0,1,.03215-.395c.21379-.21233.76143-.757.76143-.757L12.296,13.2761l-1.10632,1.0998a3.61758,3.61758,0,0,1,.41382,1.668A3.663,3.663,0,0,1,7.93059,19.6946a3.58454,3.58454,0,0,1-.94211-.14274l1.9322-1.92034L8.47134,15.4968l-2.13172-.46172L4.4113,16.95154a3.60287,3.60287,0,0,1-.12985-.93032,3.63877,3.63877,0,0,1,5.50686-3.13514L10.855,11.82583,7.42771,8.37649,6.21445,7.64465l-.9698-.97617L4.21707,4.78162l.3052-.30367.30512-.30168L6.70774,5.21418,7.67856,6.19l.72488,1.2167L11.83066,10.856,12.90117,9.792A3.63813,3.63813,0,0,1,16.0689,4.3054a3.57347,3.57347,0,0,1,.94211.14077L15.07881,6.368l.44985,2.1342,2.13172.46172,1.9278-1.91645a3.5865,3.5865,0,0,1,.13037.93032,3.63352,3.63352,0,0,1-5.33847,3.22646l-1.10845,1.10193L15.22185,14.269s.54858-.54617.76143-.7585a.26851.26851,0,0,1,.395-.02863s.12246.1215.30374.30571c.18164.18215-.003.97126-.003.97126l.48392.48838s2.28237,2.29468,2.47939,2.49368A.90288.90288,0,0,1,19.63931,18.71316Z"/></svg>