<svg id="Layer_1" data-name="Layer 1" xmlns="http://www.w3.org/2000/svg" width="54" height="54" viewBox="0 0 54 54"><defs><style>.cls-1{fill:#4c4c4c;}</style></defs><title>ico_noalert_2</title><path class="cls-1" d="M27,0A27,27,0,1,0,54,27,27.015,27.015,0,0,0,27,0Zm0,41a3.37194,3.37194,0,0,1-3.4-3.4h6.9A3.59532,3.59532,0,0,1,27,41Zm12-5.7H15V33.7h0a11.78915,11.78915,0,0,0,3.4-8.4V23.4A8.5684,8.5684,0,0,1,25.3,15v-.2a1.7,1.7,0,1,1,3.4,0h0V15h.1a8.561,8.561,0,0,1,6.8,8.4v1.8A12.13894,12.13894,0,0,0,39,33.6Z"/></svg>