<?xml version="1.0" encoding="utf-8"?>
<!-- Generator: Adobe Illustrator 16.0.0, SVG Export Plug-In . SVG Version: 6.00 Build 0)  -->
<!DOCTYPE svg PUBLIC "-//W3C//DTD SVG 1.1//EN" "http://www.w3.org/Graphics/SVG/1.1/DTD/svg11.dtd">
<svg version="1.1" id="warning" xmlns="http://www.w3.org/2000/svg" xmlns:xlink="http://www.w3.org/1999/xlink" x="0px" y="0px"
	 width="144px" height="144px" viewBox="0 0 144 144" enable-background="new 0 0 144 144" xml:space="preserve">
<circle id="bg" fill="#FCD963" cx="72" cy="72" r="72"/>
<g id="img">
	<path fill="#FFFFFF" d="M36,40c-1.104,0-2,0.891-2,2c0,1.105,0.896,2,2,2s2-0.895,2-2C38,40.891,37.104,40,36,40z"/>
	<path fill="#FFFFFF" d="M102,105c0,2.002-1.01,3-3,3H31c-1.988,0-3-0.998-3-3V52h74v2h4V38c0-3.617-2.404-6-6-6H30
		c-3.593,0-6,2.383-6,6v68c0,3.617,2.407,6,6,6h70c3.596,0,6-2.383,6-6v-7h-4V105z M28,39c0-2.007,1.012-3,3-3h68
		c1.99,0,3,0.993,3,3v9H28V39z"/>
	<path fill="#FFFFFF" d="M44,40c-1.104,0-2,0.891-2,2c0,1.105,0.896,2,2,2s2-0.895,2-2C46,40.891,45.104,40,44,40z"/>
	<path fill="#FFFFFF" d="M52,40c-1.104,0-2,0.891-2,2c0,1.105,0.896,2,2,2s2-0.895,2-2C54,40.891,53.104,40,52,40z"/>
	<path fill="#FFFFFF" d="M66,67.597c-0.264-0.019-0.281-0.022-0.563-0.237c-0.41-0.321-0.939-1.207-1.681-2.18
		c-0.69-0.932-2.077-2.195-4.162-2.18c-1.595,0-2.522,0.554-3.24,1.2c-1.093,0.971-1.616,2.025-2.149,2.669
		c-0.583,0.681-0.702,0.712-1.017,0.728c-0.259-0.019-0.276-0.022-0.559-0.237c-0.41-0.321-0.936-1.207-1.677-2.177
		c-0.694-0.935-2.075-2.198-4.163-2.183c-1.791,0-2.523,0.557-3.238,1.2c-1.092,0.971-1.613,2.026-2.146,2.669
		c-0.582,0.683-0.699,0.712-1.009,0.728c-0.26-0.019-0.277-0.022-0.558-0.237c-0.411-0.321-0.937-1.207-1.678-2.177
		C37.471,64.248,36,63,34,63v3.403c0.26,0.017,0.277,0.019,0.559,0.234c0.41,0.322,0.938,1.207,1.678,2.18
		c0.691,0.932,2.075,2.194,4.161,2.18c1.339,0.019,2.521-0.554,3.238-1.2c1.091-0.971,1.612-2.025,2.145-2.668
		c0.582-0.684,0.699-0.711,1.011-0.726c0.262,0.017,0.279,0.019,0.56,0.234c0.41,0.322,0.939,1.209,1.677,2.18
		c0.694,0.932,2.076,2.194,4.162,2.183c0.019,0,0.039,0,0.058,0c1.317,0,2.476-0.566,3.183-1.201
		c1.092-0.972,1.616-2.027,2.148-2.67c0.582-0.682,0.701-0.711,1.016-0.726c0.26,0.017,0.277,0.019,0.562,0.234
		c0.411,0.324,0.938,1.209,1.68,2.18c0.692,0.934,2.074,2.194,4.164,2.18V67.597z"/>
	<rect x="34" y="79" fill="#FFFFFF" width="32" height="4"/>
	<rect x="34" y="91" fill="#FFFFFF" width="32" height="4"/>
	<path fill="#FFFFFF" d="M118.001,58H82.003c-3.467,0-6,2-6,6L76,102.549c0.001,1.253,1.327,1.42,1.471,1.442
		c0.336-0.006,0.67-0.124,0.931-0.36L91.002,95h26.999c3.467,0,5.999-2.527,5.999-6V64C124,60.521,121.468,58,118.001,58z M99,64h4
		v15h-4V64z M101.002,89c-1.656,0-3-1.344-3-3s1.344-3,3-3s3,1.344,3,3S102.658,89,101.002,89z"/>
	<path fill="#FFFFFF" d="M73.471,103.991c-0.008,0.001-0.016,0.005-0.024,0.005C73.493,103.996,73.494,103.995,73.471,103.991z"/>
</g>
</svg>
