<?xml version="1.0" encoding="utf-8"?>
<!-- Generator: Adobe Illustrator 23.0.1, SVG Export Plug-In . SVG Version: 6.00 Build 0)  -->
<svg version="1.1" id="expired" xmlns="http://www.w3.org/2000/svg" xmlns:xlink="http://www.w3.org/1999/xlink" x="0px" y="0px"
	 width="144px" height="144px" viewBox="0 0 144 144" style="enable-background:new 0 0 144 144;" xml:space="preserve">
<style type="text/css">
	.st0{fill:#E45256;}
	.st1{fill:#FFFFFF;}
</style>
<circle id="bg" class="st0" cx="72" cy="72" r="72"/>
<g id="icon">
	<path class="st1" d="M102,105c0,2-1,3-3,3H31c-2,0-3-1-3-3V52h74v2h4V38c0-3.6-2.4-6-6-6H90v-2.5c0-0.8-0.9-1.5-2-1.5s-2,0.7-2,1.5
		V32H44v-2.5c0-0.8-0.9-1.5-2-1.5s-2,0.7-2,1.5V32H30c-3.6,0-6,2.4-6,6v68c0,3.6,2.4,6,6,6h70c3.6,0,6-2.4,6-6v-7h-4V105z M28,39
		c0-2,1-3,3-3h9v2.5c0,0.8,0.9,1.5,2,1.5s2-0.7,2-1.5V36h42v2.5c0,0.8,0.9,1.5,2,1.5s2-0.7,2-1.5V36h9c2,0,3,1,3,3v9H28V39z"/>
	<rect x="44" y="61" class="st1" width="6" height="6"/>
	<rect x="54" y="61" class="st1" width="6" height="6"/>
	<rect x="64" y="61" class="st1" width="6" height="6"/>
	<rect x="34" y="71" class="st1" width="6" height="6"/>
	<rect x="44" y="71" class="st1" width="6" height="6"/>
	<rect x="54" y="71" class="st1" width="6" height="6"/>
	<rect x="64" y="71" class="st1" width="6" height="6"/>
	<rect x="34" y="81" class="st1" width="6" height="6"/>
	<rect x="44" y="81" class="st1" width="6" height="6"/>
	<rect x="54" y="81" class="st1" width="6" height="6"/>
	<rect x="64" y="81" class="st1" width="6" height="6"/>
	<rect x="34" y="91" class="st1" width="6" height="6"/>
	<rect x="44" y="91" class="st1" width="6" height="6"/>
	<path class="st1" d="M118,58H82c-3.5,0-6,2-6,6l0,38.5c0,1.3,1.3,1.4,1.5,1.4c0.3,0,0.7-0.1,0.9-0.4L91,95h27c3.5,0,6-2.5,6-6V64
		C124,60.5,121.5,58,118,58z M109,82.2l-2.8,2.8l-6.2-6.2L93.8,85L91,82.2l6.2-6.2L91,69.8l2.8-2.8l6.2,6.2l6.2-6.2l2.8,2.8
		l-6.2,6.2L109,82.2z"/>
</g>
</svg>
