<svg id="Layer_1" data-name="Layer 1" xmlns="http://www.w3.org/2000/svg" width="24" height="24" viewBox="0 0 24 24"><defs><style>.cls-1{fill:#666;}</style></defs><title>icons_final</title><path class="cls-1" d="M23,6H15.56213c.06458.04333.128.08734.18787.1333A3.16764,3.16764,0,0,1,16.90643,8H22V9.81183l-10,6.9328L2,9.81183V8H8.5C7.5069,7.31921,7.21741,7.1001,7,6H1A1,1,0,0,0,0,7V23a1,1,0,0,0,1,1H23a1,1,0,0,0,1-1V7A1,1,0,0,0,23,6ZM22,21.293l-6.04144-6.04144L22,11.03516Zm-6.73669-5.55628-.11683.11683L21.293,22H2.707l6.14649-6.14648-.11683-.11683L12,18.01416Zm-7.22187-.48516L2,21.293V11.03516ZM8.1571,4.83319a2.70378,2.70378,0,0,1,.95453-2.11578A3.51048,3.51048,0,0,1,11,1.93726V0h2V1.99872a4.05714,4.05714,0,0,1,1.54926.66986,2.80918,2.80918,0,0,1,1.14306,2.30609h-1.9378a1.35684,1.35684,0,0,0-.77838-1.21545,2.71392,2.71392,0,0,0-1.20136-.23792A2.31794,2.31794,0,0,0,10.49951,3.83a.97126.97126,0,0,0-.47662.86175.81143.81143,0,0,0,.47009.75885,5.90977,5.90977,0,0,0,1.2818.39227l1.6936.39228a4.35117,4.35117,0,0,1,1.66877.68811A2.30123,2.30123,0,0,1,16,8.85889a2.69871,2.69871,0,0,1-1.02258,2.15692A3.78708,3.78708,0,0,1,13,11.81506v2.26209H11V11.785a4.10529,4.10529,0,0,1-1.908-.75634A2.7766,2.7766,0,0,1,8,8.70459H9.92474a1.89469,1.89469,0,0,0,.36792.971,2.163,2.163,0,0,0,1.71784.58526,3.75772,3.75772,0,0,0,1.183-.15435,1.10589,1.10589,0,0,0,.86218-1.09967.80737.80737,0,0,0-.4223-.72669,4.63809,4.63809,0,0,0-1.34009-.44372l-1.0448-.2251a6.58587,6.58587,0,0,1-2.1159-.72669A2.29786,2.29786,0,0,1,8.1571,4.83319Z"/></svg>