<?xml version="1.0" encoding="utf-8"?>
<!-- Generator: Adobe Illustrator 23.0.1, SVG Export Plug-In . SVG Version: 6.00 Build 0)  -->
<svg version="1.1" id="warning" xmlns="http://www.w3.org/2000/svg" xmlns:xlink="http://www.w3.org/1999/xlink" x="0px" y="0px"
	 width="144px" height="144px" viewBox="0 0 144 144" style="enable-background:new 0 0 144 144;" xml:space="preserve">
<style type="text/css">
	.st0{fill:#FACA2A;}
	.st1{fill:#FFFFFF;}
</style>
<circle id="bg" class="st0" cx="72" cy="72" r="72"/>
<g id="img">
	<path class="st1" d="M36,40c-1.1,0-2,0.9-2,2c0,1.1,0.9,2,2,2s2-0.9,2-2C38,40.9,37.1,40,36,40z"/>
	<path class="st1" d="M102,105c0,2-1,3-3,3H31c-2,0-3-1-3-3V52h74v2h4V38c0-3.6-2.4-6-6-6H30c-3.6,0-6,2.4-6,6v68c0,3.6,2.4,6,6,6
		h70c3.6,0,6-2.4,6-6v-7h-4V105z M28,39c0-2,1-3,3-3h68c2,0,3,1,3,3v9H28V39z"/>
	<path class="st1" d="M44,40c-1.1,0-2,0.9-2,2c0,1.1,0.9,2,2,2s2-0.9,2-2C46,40.9,45.1,40,44,40z"/>
	<path class="st1" d="M52,40c-1.1,0-2,0.9-2,2c0,1.1,0.9,2,2,2s2-0.9,2-2C54,40.9,53.1,40,52,40z"/>
	<path class="st1" d="M66,67.6c-0.3,0-0.3,0-0.6-0.2c-0.4-0.3-0.9-1.2-1.7-2.2c-0.7-0.9-2.1-2.2-4.2-2.2c-1.6,0-2.5,0.6-3.2,1.2
		c-1.1,1-1.6,2-2.1,2.7c-0.6,0.7-0.7,0.7-1,0.7c-0.3,0-0.3,0-0.6-0.2c-0.4-0.3-0.9-1.2-1.7-2.2c-0.7-0.9-2.1-2.2-4.2-2.2
		c-1.8,0-2.5,0.6-3.2,1.2c-1.1,1-1.6,2-2.1,2.7c-0.6,0.7-0.7,0.7-1,0.7c-0.3,0-0.3,0-0.6-0.2c-0.4-0.3-0.9-1.2-1.7-2.2
		C37.5,64.2,36,63,34,63v3.4c0.3,0,0.3,0,0.6,0.2c0.4,0.3,0.9,1.2,1.7,2.2c0.7,0.9,2.1,2.2,4.2,2.2c1.3,0,2.5-0.6,3.2-1.2
		c1.1-1,1.6-2,2.1-2.7c0.6-0.7,0.7-0.7,1-0.7c0.3,0,0.3,0,0.6,0.2c0.4,0.3,0.9,1.2,1.7,2.2c0.7,0.9,2.1,2.2,4.2,2.2c0,0,0,0,0.1,0
		c1.3,0,2.5-0.6,3.2-1.2c1.1-1,1.6-2,2.1-2.7c0.6-0.7,0.7-0.7,1-0.7c0.3,0,0.3,0,0.6,0.2c0.4,0.3,0.9,1.2,1.7,2.2
		c0.7,0.9,2.1,2.2,4.2,2.2L66,67.6L66,67.6z"/>
	<rect x="34" y="79" class="st1" width="32" height="4"/>
	<rect x="34" y="91" class="st1" width="32" height="4"/>
	<path class="st1" d="M118,58H82c-3.5,0-6,2-6,6l0,38.5c0,1.3,1.3,1.4,1.5,1.4c0.3,0,0.7-0.1,0.9-0.4L91,95h27c3.5,0,6-2.5,6-6V64
		C124,60.5,121.5,58,118,58z M99,64h4v15h-4V64z M101,89c-1.7,0-3-1.3-3-3s1.3-3,3-3s3,1.3,3,3S102.7,89,101,89z"/>
	<path class="st1" d="M73.5,104C73.5,104,73.5,104,73.5,104C73.5,104,73.5,104,73.5,104z"/>
</g>
</svg>
